Coordinates
version=1
nRows=4
nColumns=63
inDegrees=yes

Units are S.I. units (second, meters, Newtons, ...)
If the header above contains a line with 'inDegrees', this indicates whether rotational values are in degrees (yes) or radians (no).

endheader
time	pelvis_tilt	pelvis_list	pelvis_rotation	pelvis_tx	pelvis_ty	pelvis_tz	hip_flexion_r	hip_adduction_r	hip_rotation_r	knee_angle_r	knee_angle_r_beta	ankle_angle_r	subtalar_angle_r	mtp_angle_r	hip_flexion_l	hip_adduction_l	hip_rotation_l	knee_angle_l	knee_angle_l_beta	ankle_angle_l	subtalar_angle_l	mtp_angle_l	L5_S1_Flex_Ext	L5_S1_Lat_Bending	L5_S1_axial_rotation	L4_L5_Flex_Ext	L4_L5_Lat_Bending	L4_L5_axial_rotation	L3_L4_Flex_Ext	L3_L4_Lat_Bending	L3_L4_axial_rotation	L2_L3_Flex_Ext	L2_L3_Lat_Bending	L2_L3_axial_rotation	L1_L2_Flex_Ext	L1_L2_Lat_Bending	L1_L2_axial_rotation	L1_T12_Flex_Ext	L1_T12_Lat_Bending	L1_T12_axial_rotation	Abs_r3	Abs_r2	Abs_r1	Abs_t1	Abs_t2	neck_flexion	neck_bending	neck_rotation	arm_flex_r	arm_add_r	arm_rot_r	elbow_flex_r	pro_sup_r	wrist_flex_r	wrist_dev_r	arm_flex_l	arm_add_l	arm_rot_l	elbow_flex_l	pro_sup_l	wrist_flex_l	wrist_dev_l
      5.06779661	      1.96781377	    -10.26660113	     86.51635227	      0.30367080	      1.06157412	      0.22833909	     -3.12857251	      3.64171966	     18.37752434	      1.30389845	      0.02275732	     27.47174704	    -15.27816389	      0.00000000	     -1.91488737	     -4.46503122	     15.42226004	      0.80428752	      0.01403747	     33.81392621	     -9.31276157	      0.00000000	      0.34448324	     -0.14098266	     -0.84092921	      0.63973983	     -0.18750694	     -0.89348729	      0.56595152	     -0.34278524	     -0.89348729	      0.39370990	     -0.34278524	     -0.73581306	      0.31988714	     -0.28749184	     -0.68325499	      0.19683772	     -0.21838214	     -0.63069691	      2.46060934	     -1.59482403	     -4.67699601	      0.00000000	      0.00000000	     10.84817879	     -0.14915078	    -31.66660396	     13.11384048	    -13.76051269	     80.70923580	     53.05147653	      2.39359321	     -4.28483884	      0.90503293	     12.09093146	    -15.85407853	     65.11983183	     51.43070216	     60.96969813	      5.47687670	      0.20189656
      5.08474576	      2.07658430	    -10.31514812	     86.34466201	      0.30292829	      1.06137633	      0.22792951	     -3.00228312	      3.72058255	     17.84975726	      1.50823719	      0.02632370	     27.81885443	    -14.44706635	      0.00000000	     -1.98523863	     -4.53547965	     14.41401851	      0.93121601	      0.01625279	     33.98527726	     -8.30897401	      0.00000000	      0.36126814	     -0.15138382	     -0.82494929	      0.67091106	     -0.20134048	     -0.87650862	      0.59352742	     -0.36807461	     -0.87650862	      0.41289335	     -0.36807461	     -0.72183063	      0.33547359	     -0.30870188	     -0.67027130	      0.20642861	     -0.23449353	     -0.61871197	      2.58050218	     -1.71248401	     -4.58812048	      0.00000000	      0.00000000	     10.38231685	      0.02308120	    -34.02937145	     11.36530419	    -13.90975085	     76.76647516	     53.39585462	      2.16989097	     -3.99436602	      1.14147275	     12.46762044	    -15.89482763	     65.74729507	     51.36243061	     60.68653173	      6.00035283	      0.01666544
      5.10169492	      2.17303755	    -10.19823797	     86.13180476	      0.30224415	      1.06126978	      0.22745588	     -3.12221931	      3.76833105	     18.22384522	      1.57274265	      0.02744954	     27.78675548	    -14.82295163	      0.00000000	     -2.27938182	     -4.55223836	     15.61759477	      1.00609433	      0.01755966	     33.37418026	    -10.69094774	      0.00000000	      0.36238548	     -0.15303251	     -0.87476155	      0.67298608	     -0.20353324	     -0.92943415	      0.59536311	     -0.37208324	     -0.92943415	      0.41417037	     -0.37208324	     -0.76541636	      0.33651116	     -0.31206389	     -0.71074376	      0.20706706	     -0.23704736	     -0.65607117	      2.58848326	     -1.73113434	     -4.86516133	      0.00000000	      0.00000000	      9.74655527	      0.07565884	    -35.22356797	     10.24920492	    -13.97284194	     73.99584468	     53.81684369	      2.12062977	     -4.29103964	      1.85078967	     12.80686798	    -16.16013027	     66.69108431	     51.64463345	     59.23944148	      5.35337440	     -0.46606783
      5.11864407	      2.23556568	    -10.24754905	     85.90580706	      0.30157533	      1.06107047	      0.22718808	     -3.04542029	      3.78279385	     18.15879381	      1.64396755	      0.02869265	     27.89859166	    -14.54566117	      0.00000000	     -2.34737115	     -4.55952500	     14.87874185	      1.11103343	      0.01939119	     33.30409415	    -10.48011130	      0.00000000	      0.37297940	     -0.15856652	     -0.89502738	      0.69266004	     -0.21089347	     -0.95096659	      0.61276786	     -0.38553864	     -0.95096659	      0.42627816	     -0.38553864	     -0.78314896	      0.34634867	     -0.32334885	     -0.72720974	      0.21312043	     -0.24561954	     -0.67127053	      2.66415456	     -1.79373620	     -4.97787376	      0.00000000	      0.00000000	      9.33312134	      0.03481894	    -36.77826570	      9.15392852	    -13.94587349	     71.37494501	     54.22451687	      2.13104891	     -4.69893084	      2.30617387	     13.07607104	    -16.32084927	     67.32047125	     51.78219604	     58.74628035	      5.04562031	     -1.09920576
